<?xml version="1.0" encoding="utf-8"?>
<!-- Generator: Adobe Illustrator 22.1.0, SVG Export Plug-In . SVG Version: 6.00 Build 0)  -->
<svg version="1.1" id="Слой_1" xmlns="http://www.w3.org/2000/svg" xmlns:xlink="http://www.w3.org/1999/xlink" x="0px" y="0px"
	 viewBox="0 0 16 18" style="enable-background:new 0 0 16 18;" xml:space="preserve">
<path d="M16,12h-1l0-5c0-3.9-3.1-7-7-7C4.1,0,1,3.1,1,7v5H0v2h4c0,2.2,1.8,4,4,4s4-1.8,4-4h4V12z M8,16c-1.1,0-2-0.9-2-2h4
	C10,15.1,9.1,16,8,16z M3,12V7c0-2.8,2.2-5,5-5s5,2.2,5,5l0,5H3z"/>
</svg>
